<svg id="svg" version="1.1" xmlns="http://www.w3.org/2000/svg" xmlns:xlink="http://www.w3.org/1999/xlink" width="200" height="200" viewBox="0, 0, 400,400"><g id="svgg"><path id="path0" d="M50.479 199.913 L 50.479 349.347 199.913 349.347 L 349.347 349.347 349.347 199.913 L 349.347 50.479 199.913 50.479 L 50.479 50.479 50.479 199.913 M339.382 199.956 L 339.339 339.339 199.956 339.382 L 60.574 339.426 60.574 200.000 L 60.574 60.574 200.000 60.574 L 339.426 60.574 339.382 199.956 M214.970 246.040 L 214.970 249.434 219.147 249.434 L 223.325 249.434 223.325 282.158 L 223.325 314.883 219.147 314.883 L 214.970 314.883 214.970 318.277 L 214.970 321.671 241.775 321.671 L 268.581 321.671 268.581 310.009 L 268.581 298.346 265.382 298.346 L 262.183 298.346 262.077 300.479 C 262.019 301.651,261.929 304.648,261.879 307.137 C 261.828 309.626,261.741 312.387,261.686 313.272 L 261.586 314.883 247.503 314.883 L 233.420 314.883 233.420 299.913 L 233.420 284.943 244.038 284.943 L 254.656 284.943 254.656 281.549 L 254.656 278.155 244.038 278.155 L 233.420 278.155 233.420 263.795 L 233.420 249.434 246.823 249.434 L 260.226 249.434 260.230 250.261 C 260.231 250.716,260.347 253.986,260.487 257.528 C 260.626 261.070,260.743 264.223,260.745 264.534 L 260.748 265.100 263.969 265.100 L 267.189 265.100 267.189 253.873 L 267.189 242.646 241.079 242.646 L 214.970 242.646 214.970 246.040 M281.288 246.040 L 281.288 249.434 285.553 249.434 L 289.817 249.434 289.817 282.158 L 289.817 314.883 285.553 314.883 L 281.288 314.883 281.288 318.277 L 281.288 321.671 294.778 321.671 L 308.268 321.671 308.268 318.280 L 308.268 314.889 304.047 314.842 L 299.826 314.795 299.826 282.158 L 299.826 249.521 304.047 249.475 L 308.268 249.428 308.268 246.037 L 308.268 242.646 294.778 242.646 L 281.288 242.646 281.288 246.040 " stroke="none" fill="#fbfbfb" fill-rule="evenodd"></path><path id="path1" d="M339.295 199.869 L 339.252 339.251 199.869 339.295 L 60.487 339.339 199.875 339.382 C 311.257 339.417,339.279 339.382,339.345 339.208 C 339.390 339.088,339.407 276.327,339.383 199.739 L 339.338 60.487 339.295 199.869 M214.877 246.040 L 214.883 249.521 219.147 249.526 L 223.412 249.531 219.194 249.480 L 214.977 249.428 214.924 245.993 L 214.871 242.559 214.877 246.040 M240.078 249.565 C 243.788 249.591,249.859 249.591,253.568 249.565 C 257.278 249.539,254.243 249.517,246.823 249.517 C 239.404 249.517,236.369 249.539,240.078 249.565 M283.430 249.564 C 284.657 249.594,286.615 249.594,287.782 249.564 C 288.949 249.534,287.946 249.510,285.553 249.510 C 283.159 249.510,282.204 249.534,283.430 249.564 M299.819 249.652 C 299.774 249.772,299.757 264.478,299.781 282.332 L 299.826 314.795 304.003 314.800 L 308.181 314.805 304.047 314.754 L 299.913 314.702 299.913 282.158 L 299.913 249.615 304.134 249.565 L 308.355 249.515 304.129 249.475 C 300.877 249.444,299.883 249.485,299.819 249.652 M260.270 253.351 C 260.272 253.734,260.308 253.870,260.349 253.653 C 260.391 253.437,260.389 253.123,260.346 252.957 C 260.302 252.791,260.268 252.968,260.270 253.351 M260.441 258.138 C 260.441 258.473,260.477 258.610,260.520 258.442 C 260.564 258.275,260.564 258.000,260.520 257.833 C 260.477 257.665,260.441 257.802,260.441 258.138 M260.618 262.924 C 260.620 263.307,260.656 263.443,260.698 263.227 C 260.739 263.010,260.738 262.697,260.694 262.531 C 260.650 262.364,260.616 262.541,260.618 262.924 M262.017 299.826 C 262.018 300.305,262.052 300.480,262.092 300.215 C 262.132 299.951,262.131 299.559,262.089 299.345 C 262.048 299.131,262.015 299.347,262.017 299.826 M261.843 306.092 C 261.844 306.571,261.878 306.746,261.918 306.482 C 261.958 306.217,261.957 305.825,261.915 305.611 C 261.874 305.397,261.841 305.614,261.843 306.092 M261.669 312.533 C 261.670 313.011,261.704 313.186,261.744 312.922 C 261.784 312.657,261.783 312.266,261.741 312.052 C 261.700 311.837,261.667 312.054,261.669 312.533 M214.873 314.931 C 214.826 315.054,214.811 316.640,214.839 318.456 L 214.891 321.758 214.930 318.323 L 214.970 314.889 219.191 314.839 L 223.412 314.789 219.185 314.749 C 215.881 314.717,214.940 314.757,214.873 314.931 M240.426 314.839 C 244.328 314.865,250.711 314.865,254.613 314.839 C 258.514 314.813,255.322 314.791,247.520 314.791 C 239.717 314.791,236.525 314.813,240.426 314.839 M283.430 314.839 C 284.657 314.869,286.615 314.868,287.782 314.838 C 288.949 314.808,287.946 314.784,285.553 314.784 C 283.159 314.784,282.204 314.809,283.430 314.839 " stroke="none" fill="#acacc4" fill-rule="evenodd"></path><path id="path2" d="M349.391 199.869 L 349.347 349.347 199.869 349.391 L 50.392 349.434 199.875 349.478 C 319.333 349.513,349.375 349.478,349.441 349.304 C 349.486 349.184,349.503 281.880,349.479 199.739 L 349.434 50.392 349.391 199.869 M267.271 253.873 C 267.271 260.096,267.293 262.616,267.319 259.474 C 267.346 256.332,267.346 251.240,267.319 248.160 C 267.293 245.079,267.271 247.650,267.271 253.873 M281.187 246.040 C 281.187 247.955,281.212 248.762,281.244 247.833 C 281.275 246.905,281.275 245.339,281.244 244.352 C 281.213 243.366,281.187 244.125,281.187 246.040 M308.341 246.040 C 308.341 247.955,308.366 248.762,308.398 247.833 C 308.429 246.905,308.429 245.339,308.398 244.352 C 308.367 243.366,308.341 244.125,308.341 246.040 M233.503 263.882 C 233.503 271.780,233.525 275.011,233.551 271.062 C 233.577 267.113,233.577 260.651,233.551 256.701 C 233.525 252.752,233.503 255.983,233.503 263.882 M260.270 254.569 C 260.272 254.952,260.308 255.088,260.349 254.872 C 260.391 254.655,260.389 254.342,260.346 254.176 C 260.302 254.009,260.268 254.186,260.270 254.569 M260.444 259.269 C 260.446 259.652,260.482 259.788,260.523 259.572 C 260.565 259.355,260.564 259.042,260.520 258.875 C 260.476 258.709,260.442 258.886,260.444 259.269 M260.618 264.143 C 260.620 264.526,260.656 264.662,260.698 264.445 C 260.739 264.229,260.738 263.915,260.694 263.749 C 260.650 263.583,260.616 263.760,260.618 264.143 M254.696 281.504 L 254.656 284.941 244.082 284.986 L 233.507 285.030 233.506 299.826 L 233.504 314.621 233.550 299.869 L 233.596 285.117 244.132 285.117 C 252.535 285.117,254.684 285.072,254.753 284.895 C 254.800 284.772,254.815 283.186,254.787 281.370 L 254.735 278.068 254.696 281.504 M262.032 298.428 C 261.978 298.568,261.974 298.784,262.024 298.906 C 262.073 299.029,262.120 298.955,262.127 298.742 C 262.141 298.357,262.166 298.354,265.405 298.303 L 268.668 298.251 265.399 298.212 C 262.661 298.179,262.114 298.214,262.032 298.428 M261.843 304.526 C 261.844 305.004,261.878 305.180,261.918 304.915 C 261.958 304.650,261.957 304.259,261.915 304.045 C 261.874 303.831,261.841 304.047,261.843 304.526 M261.669 310.966 C 261.670 311.445,261.704 311.620,261.744 311.355 C 261.784 311.091,261.783 310.699,261.741 310.485 C 261.700 310.271,261.667 310.487,261.669 310.966 M281.187 318.277 C 281.187 320.191,281.212 320.999,281.244 320.070 C 281.275 319.142,281.275 317.575,281.244 316.589 C 281.213 315.603,281.187 316.362,281.187 318.277 M308.341 318.277 C 308.341 320.191,308.366 320.999,308.398 320.070 C 308.429 319.142,308.429 317.575,308.398 316.589 C 308.367 315.603,308.341 316.362,308.341 318.277 " stroke="none" fill="#747494" fill-rule="evenodd"></path><path id="path3" d="M0.000 200.000 L 0.000 400.000 200.000 400.000 L 400.000 400.000 400.000 200.000 L 400.000 0.000 200.000 0.000 L 0.000 0.000 0.000 200.000 M349.521 200.000 L 349.521 349.521 200.000 349.521 L 50.479 349.521 50.479 200.000 L 50.479 50.479 200.000 50.479 L 349.521 50.479 349.521 200.000 M60.748 200.000 L 60.748 339.252 200.000 339.252 L 339.252 339.252 339.252 200.000 L 339.252 60.748 200.000 60.748 L 60.748 60.748 60.748 200.000 M267.363 253.873 L 267.363 265.100 263.969 265.100 L 260.574 265.100 260.571 263.925 C 260.568 263.279,260.452 259.852,260.313 256.310 C 260.173 252.768,260.057 249.811,260.055 249.739 C 260.054 249.667,254.099 249.608,246.823 249.608 L 233.594 249.608 233.594 263.882 L 233.594 278.155 244.212 278.155 L 254.830 278.155 254.830 281.636 L 254.830 285.117 244.212 285.117 L 233.594 285.117 233.594 299.913 L 233.594 314.708 247.579 314.708 L 261.564 314.708 261.680 309.617 C 261.744 306.817,261.847 303.095,261.909 301.345 L 262.021 298.165 265.345 298.212 L 268.668 298.259 268.713 309.965 L 268.758 321.671 241.777 321.671 L 214.795 321.671 214.795 318.190 L 214.795 314.708 219.060 314.708 L 223.325 314.708 223.325 282.158 L 223.325 249.608 219.060 249.608 L 214.795 249.608 214.795 246.127 L 214.795 242.646 241.079 242.646 L 267.363 242.646 267.363 253.873 M308.442 246.127 L 308.442 249.608 304.178 249.608 L 299.913 249.608 299.913 282.158 L 299.913 314.708 304.178 314.708 L 308.442 314.708 308.442 318.190 L 308.442 321.671 294.778 321.671 L 281.114 321.671 281.114 318.190 L 281.114 314.708 285.466 314.708 L 289.817 314.708 289.817 282.158 L 289.817 249.608 285.466 249.608 L 281.114 249.608 281.114 246.127 L 281.114 242.646 294.778 242.646 L 308.442 242.646 308.442 246.127 " stroke="none" fill="#1c2c54" fill-rule="evenodd"></path><path id="path4" d="M60.655 60.792 C 60.610 60.912,60.593 123.634,60.617 200.174 L 60.662 339.339 60.705 200.044 L 60.748 60.749 200.044 60.705 L 339.339 60.661 200.038 60.618 C 88.726 60.583,60.721 60.618,60.655 60.792 M260.096 250.914 C 260.098 251.297,260.134 251.433,260.175 251.216 C 260.217 251.000,260.215 250.687,260.172 250.520 C 260.128 250.354,260.094 250.531,260.096 250.914 M260.270 255.788 C 260.272 256.171,260.308 256.307,260.349 256.090 C 260.391 255.874,260.389 255.560,260.346 255.394 C 260.302 255.228,260.268 255.405,260.270 255.788 M260.444 260.487 C 260.446 260.870,260.482 261.006,260.523 260.790 C 260.565 260.573,260.564 260.260,260.520 260.094 C 260.476 259.927,260.442 260.104,260.444 260.487 M268.664 310.009 C 268.664 316.471,268.685 319.114,268.712 315.883 C 268.738 312.652,268.738 307.365,268.712 304.134 C 268.685 300.903,268.664 303.547,268.664 310.009 M261.843 302.959 C 261.844 303.438,261.878 303.613,261.918 303.348 C 261.958 303.084,261.957 302.692,261.915 302.478 C 261.874 302.264,261.841 302.480,261.843 302.959 M261.671 309.312 C 261.671 309.839,261.704 310.054,261.743 309.791 C 261.783 309.528,261.783 309.097,261.743 308.834 C 261.704 308.570,261.671 308.786,261.671 309.312 " stroke="none" fill="#444c6c" fill-rule="evenodd"></path></g></svg>